<svg width="72" height="72" viewBox="0 0 72 72" fill="none" xmlns="http://www.w3.org/2000/svg">
<g clip-path="url(#clip0_3796_31352)">
<mask id="mask0_3796_31352" style="mask-type:luminance" maskUnits="userSpaceOnUse" x="0" y="0" width="72" height="72">
<path d="M72 0H0V72H72V0Z" fill="white"/>
</mask>
<g mask="url(#mask0_3796_31352)">
<mask id="mask1_3796_31352" style="mask-type:luminance" maskUnits="userSpaceOnUse" x="-1" y="-1" width="74" height="74">
<path d="M-0.25 -0.25H72.25V72.25H-0.25V-0.25Z" fill="white"/>
</mask>
<g mask="url(#mask1_3796_31352)">
<path d="M46.0871 2.77148C44.8089 2.77148 43.7729 3.82795 43.7729 5.13136V9.85154C43.7729 11.1549 44.8089 12.2117 46.0871 12.2117H52.8823C40.5324 26.2967 24.0134 36.4889 5.31394 40.7751C3.69588 41.146 2.62433 42.7123 2.92825 44.3439L3.54972 47.6789C3.85683 49.3274 5.4498 50.4147 7.0854 50.0445C27.9183 45.3293 46.2922 33.9785 59.9721 18.2876V26.3726C59.9721 27.676 61.0084 28.7326 62.2865 28.7326H66.915C68.1929 28.7326 69.2289 27.676 69.2289 26.3726V5.13136C69.2289 3.82795 68.1929 2.77148 66.915 2.77148H46.0871Z" fill="url(#paint0_linear_3796_31352)"/>
<path d="M11.1097 61.0915L5.06755 62.585C3.71905 62.917 2.77075 64.1278 2.77075 65.5169V66.2085C2.77075 67.8775 4.1236 69.2289 5.7911 69.2289H11.8333C13.5022 69.2289 14.8536 67.8775 14.8536 66.2085V64.0248C14.8536 62.3167 13.4587 61.003 11.8391 61.003C11.5998 61.003 11.3548 61.0306 11.1097 61.0915ZM28.9679 55.5177L22.9258 57.6158C21.7107 58.0378 20.8958 59.1833 20.8958 60.4694V66.2085C20.8958 67.8775 22.2486 69.2289 23.9161 69.2289H29.9583C31.6272 69.2289 32.9786 67.8775 32.9786 66.2085V58.3727C32.9786 56.6472 31.5663 55.3495 29.9626 55.348C29.6349 55.348 29.3 55.4031 28.9679 55.5177ZM46.7377 47.2353L40.6955 50.2426C39.6689 50.753 39.0208 51.8013 39.0208 52.9468V66.2085C39.0208 67.8775 40.3736 69.2289 42.0411 69.2289H48.0833C49.7522 69.2289 51.1036 67.8775 51.1036 66.2085V49.941C51.1036 48.1894 49.6681 46.9163 48.0818 46.9163C47.6367 46.9163 47.1785 47.0163 46.7377 47.2353ZM64.3537 33.7517L58.3116 38.4512C57.5764 39.0239 57.1458 39.9026 57.1458 40.835V66.2085C57.1458 67.8775 58.4986 69.2289 60.1661 69.2289H66.2083C67.8772 69.2289 69.2286 67.8775 69.2286 66.2085V36.1355C69.2286 34.3433 67.7583 33.1094 66.1952 33.1094C65.5659 33.1094 64.9221 33.3095 64.3537 33.7517Z" fill="url(#paint1_linear_3796_31352)"/>
</g>
</g>
</g>
<defs>
<linearGradient id="paint0_linear_3796_31352" x1="1.27496" y1="47.0794" x2="63.1305" y2="12.8725" gradientUnits="userSpaceOnUse">
<stop stop-color="#107711"/>
<stop offset="0.5" stop-color="#40A10F"/>
<stop offset="1" stop-color="#70CC0D"/>
</linearGradient>
<linearGradient id="paint1_linear_3796_31352" x1="65.6407" y1="48.5066" x2="12.8069" y2="82.5068" gradientUnits="userSpaceOnUse">
<stop stop-color="#70CC0D"/>
<stop offset="0.5" stop-color="#40A10F"/>
<stop offset="1" stop-color="#107711"/>
</linearGradient>
<clipPath id="clip0_3796_31352">
<rect width="72" height="72" fill="white"/>
</clipPath>
</defs>
</svg>
