<svg width="72" height="72" viewBox="0 0 72 72" fill="none" xmlns="http://www.w3.org/2000/svg">
<path fill-rule="evenodd" clip-rule="evenodd" d="M15.9375 47.8103H36.0625H37.5H56.1875C64.9205 47.8103 72 40.7308 72 31.9978C72 23.2648 64.9205 16.1853 56.1875 16.1853C55.8408 16.1853 55.4966 16.1965 55.1555 16.2184C51.5459 9.36102 44.3502 4.6853 36.0625 4.6853C25.6169 4.6853 16.9061 12.1128 14.9234 21.9745C8.25221 22.4917 3 28.0689 3 34.8728C3 42.018 8.79232 47.8103 15.9375 47.8103Z" fill="#E7F1FF"/>
<path fill-rule="evenodd" clip-rule="evenodd" d="M15.9375 47.8103H36.0625H37.5H56.1875C64.9205 47.8103 72 40.7308 72 31.9978C72 23.2648 64.9205 16.1853 56.1875 16.1853C55.8408 16.1853 55.4966 16.1965 55.1555 16.2184C51.5459 9.36102 44.3502 4.6853 36.0625 4.6853C25.6169 4.6853 16.9061 12.1128 14.9234 21.9745C8.25221 22.4917 3 28.0689 3 34.8728C3 42.018 8.79232 47.8103 15.9375 47.8103Z" fill="url(#paint0_linear_4290_115277)"/>
<path fill-rule="evenodd" clip-rule="evenodd" d="M15.9375 47.8103H36.0625H37.5H56.1875C64.9205 47.8103 72 40.7308 72 31.9978C72 23.2648 64.9205 16.1853 56.1875 16.1853C55.8408 16.1853 55.4966 16.1965 55.1555 16.2184C51.5459 9.36102 44.3502 4.6853 36.0625 4.6853C25.6169 4.6853 16.9061 12.1128 14.9234 21.9745C8.25221 22.4917 3 28.0689 3 34.8728C3 42.018 8.79232 47.8103 15.9375 47.8103Z" fill="url(#paint1_linear_4290_115277)"/>
<path d="M3 34.8728C3 27.7276 8.79232 21.9353 15.9375 21.9353H20.25C29.7769 21.9353 37.5 29.6584 37.5 39.1853V47.8103H15.9375C8.79232 47.8103 3 42.018 3 34.8728Z" fill="url(#paint2_radial_4290_115277)"/>
<path d="M14.5 26.2478C14.5 14.3392 24.1539 4.6853 36.0625 4.6853C47.9711 4.6853 57.625 14.3392 57.625 26.2478C57.625 38.1564 47.9711 47.8103 36.0625 47.8103C24.1539 47.8103 14.5 38.1564 14.5 26.2478Z" fill="url(#paint3_radial_4290_115277)"/>
<circle cx="56.1875" cy="31.9978" r="15.8125" fill="url(#paint4_radial_4290_115277)"/>
<path fill-rule="evenodd" clip-rule="evenodd" d="M11.2512 60.0038H28.6868L28.753 60.0039H46.187C46.2096 60.0041 46.2322 60.0041 46.2549 60.0041C53.8496 60.0041 60.0063 53.8474 60.0063 46.2527C60.0063 38.658 53.8496 32.5012 46.2549 32.5012C45.9534 32.5012 45.6541 32.5109 45.3574 32.53C42.2184 26.5663 35.9606 22.5 28.753 22.5C19.669 22.5 12.0936 28.9593 10.3693 37.5355C4.56763 37.9853 0 42.8356 0 48.7526C0 54.9665 5.03732 60.0038 11.2512 60.0038Z" fill="white"/>
<path fill-rule="evenodd" clip-rule="evenodd" d="M11.2512 60.0038H28.6868L28.753 60.0039H46.187C46.2096 60.0041 46.2322 60.0041 46.2549 60.0041C53.8496 60.0041 60.0063 53.8474 60.0063 46.2527C60.0063 38.658 53.8496 32.5012 46.2549 32.5012C45.9534 32.5012 45.6541 32.5109 45.3574 32.53C42.2184 26.5663 35.9606 22.5 28.753 22.5C19.669 22.5 12.0936 28.9593 10.3693 37.5355C4.56763 37.9853 0 42.8356 0 48.7526C0 54.9665 5.03732 60.0038 11.2512 60.0038Z" fill="url(#paint5_linear_4290_115277)"/>
<path d="M0 48.7526C0 42.5388 5.03733 37.5015 11.2512 37.5015H15.0016C23.2867 37.5015 30.0032 44.2179 30.0032 52.503V60.0038H11.2512C5.03732 60.0038 0 54.9665 0 48.7526Z" fill="url(#paint6_radial_4290_115277)"/>
<path d="M10.001 41.252C10.001 30.8955 18.3966 22.5 28.753 22.5C39.1094 22.5 47.505 30.8955 47.505 41.252C47.505 51.6084 39.1094 60.0039 28.753 60.0039C18.3966 60.0039 10.001 51.6084 10.001 41.252Z" fill="url(#paint7_radial_4290_115277)"/>
<circle cx="46.2549" cy="46.2527" r="13.7514" fill="url(#paint8_radial_4290_115277)"/>
<path fill-rule="evenodd" clip-rule="evenodd" d="M18.975 52.2171L31.7075 33.1185C32.225 32.3423 33.4363 32.7835 33.3332 33.7107L31.7005 48.4047H37.2622C37.9942 48.4047 38.4309 49.2205 38.0248 49.8296L25.2924 68.9283C24.7749 69.7045 23.5636 69.2633 23.6667 68.3361L25.2993 53.6421H19.7376C19.0056 53.6421 18.569 52.8262 18.975 52.2171Z" fill="url(#paint9_linear_4290_115277)"/>
<path fill-rule="evenodd" clip-rule="evenodd" d="M18.975 52.2171L31.7075 33.1185C32.225 32.3423 33.4363 32.7835 33.3332 33.7107L31.7005 48.4047H37.2622C37.9942 48.4047 38.4309 49.2205 38.0248 49.8296L25.2924 68.9283C24.7749 69.7045 23.5636 69.2633 23.6667 68.3361L25.2993 53.6421H19.7376C19.0056 53.6421 18.569 52.8262 18.975 52.2171Z" fill="url(#paint10_linear_4290_115277)"/>
<defs>
<linearGradient id="paint0_linear_4290_115277" x1="24.5625" y1="14.7478" x2="37.5" y2="47.8103" gradientUnits="userSpaceOnUse">
<stop stop-color="#C6D8F5"/>
<stop offset="1" stop-color="#89AFD1" stop-opacity="0"/>
</linearGradient>
<linearGradient id="paint1_linear_4290_115277" x1="33.7623" y1="49.3365" x2="32.8558" y2="4.6853" gradientUnits="userSpaceOnUse">
<stop stop-color="#547DDA"/>
<stop offset="0.257422" stop-color="#93C2FF" stop-opacity="0"/>
</linearGradient>
<radialGradient id="paint2_radial_4290_115277" cx="0" cy="0" r="1" gradientUnits="userSpaceOnUse" gradientTransform="translate(21.6875 47.8103) rotate(-127.875) scale(27.3167 31.6127)">
<stop offset="0.683784" stop-color="#8FABDD" stop-opacity="0"/>
<stop offset="1" stop-color="#5582D3"/>
</radialGradient>
<radialGradient id="paint3_radial_4290_115277" cx="0" cy="0" r="1" gradientUnits="userSpaceOnUse" gradientTransform="translate(36.0625 43.4978) rotate(-90) scale(38.8125)">
<stop offset="0.598765" stop-color="#C7DFFF" stop-opacity="0"/>
<stop offset="1" stop-color="#6B97E6"/>
</radialGradient>
<radialGradient id="paint4_radial_4290_115277" cx="0" cy="0" r="1" gradientUnits="userSpaceOnUse" gradientTransform="translate(47.7542 43.5936) rotate(-56.3099) scale(30.4068)">
<stop offset="0.47771" stop-color="#8FABDD" stop-opacity="0"/>
<stop offset="1" stop-color="#5582D3"/>
</radialGradient>
<linearGradient id="paint5_linear_4290_115277" x1="30.0032" y1="22.5" x2="30.0032" y2="60.0039" gradientUnits="userSpaceOnUse">
<stop stop-color="#718EA8"/>
<stop offset="1" stop-color="#3F6587"/>
</linearGradient>
<radialGradient id="paint6_radial_4290_115277" cx="0" cy="0" r="1" gradientUnits="userSpaceOnUse" gradientTransform="translate(16.2517 60.0038) rotate(-117.897) scale(24.0468 27.8285)">
<stop offset="0.629385" stop-color="#B8CDDF" stop-opacity="0"/>
<stop offset="1" stop-color="#A3B9CC"/>
</radialGradient>
<radialGradient id="paint7_radial_4290_115277" cx="0" cy="0" r="1" gradientUnits="userSpaceOnUse" gradientTransform="translate(28.753 56.2536) rotate(-90) scale(33.7536)">
<stop offset="0.6875" stop-color="#B8CDDF" stop-opacity="0"/>
<stop offset="1" stop-color="#C1D7EA"/>
</radialGradient>
<radialGradient id="paint8_radial_4290_115277" cx="0" cy="0" r="1" gradientUnits="userSpaceOnUse" gradientTransform="translate(38.9208 56.3371) rotate(-56.3099) scale(26.4435)">
<stop offset="0.382649" stop-color="#B8CDDF" stop-opacity="0"/>
<stop offset="1" stop-color="#A3B9CC"/>
</radialGradient>
<linearGradient id="paint9_linear_4290_115277" x1="33.379" y1="65.3031" x2="19.7326" y2="48.3644" gradientUnits="userSpaceOnUse">
<stop stop-color="#E25A01"/>
<stop offset="1" stop-color="#FFD400"/>
</linearGradient>
<linearGradient id="paint10_linear_4290_115277" x1="33.379" y1="65.3031" x2="19.7326" y2="48.3644" gradientUnits="userSpaceOnUse">
<stop stop-color="#E25A01"/>
<stop offset="1" stop-color="#FAB01C"/>
</linearGradient>
</defs>
</svg>
