<svg width="72" height="72" viewBox="0 0 72 72" fill="none" xmlns="http://www.w3.org/2000/svg">
<path fill-rule="evenodd" clip-rule="evenodd" d="M18.3086 42.9979L17.5625 45.2174L15.486 47.019C11.042 50.8747 10.8144 57.6566 14.9901 61.7971V68.1176C14.9901 70.2618 16.742 72 18.9032 72H21.3665C23.5276 72 25.2796 70.2618 25.2796 68.1176V64.3478H58.7204V68.1176C58.7204 70.2618 60.4724 72 62.6335 72H65.0968C67.258 72 69.0099 70.2618 69.0099 68.1176V61.7971C73.1856 57.6566 72.958 50.8747 68.514 47.019L66.4375 45.2174L63.6236 36.8467C61.8476 31.5634 56.8636 28 51.25 28L40.9197 28C40.1098 29.8535 39.0817 31.5898 37.8679 33.1765H52.7997C54.2999 33.1765 55.6683 34.0277 56.3221 35.3678L58.8464 40.5443C60.104 43.1224 58.2108 46.1176 55.3241 46.1176H28.6743C26.3506 46.1176 24.6707 44.1769 24.7597 42.0751C22.7042 42.6511 20.5416 42.9709 18.3086 42.9979ZM17.2162 54.5294C17.2162 52.0279 19.26 50 21.7815 50C24.303 50 26.3468 52.0279 26.3468 54.5294C26.3468 57.0309 24.303 59.0588 21.7815 59.0588C19.26 59.0588 17.2162 57.0309 17.2162 54.5294ZM57.6516 54.5294C57.6516 52.0279 59.6954 50 62.2169 50C64.7384 50 66.7822 52.0279 66.7822 54.5294C66.7822 57.0309 64.7384 59.0588 62.2169 59.0588C59.6954 59.0588 57.6516 57.0309 57.6516 54.5294Z" fill="url(#paint0_linear_590_161874)"/>
<path fill-rule="evenodd" clip-rule="evenodd" d="M18 0.000106812C8.05909 0.000106812 0 8.0588 0 17.9997C0 27.9406 8.05909 35.9993 18 35.9993C27.9409 35.9993 36 27.9406 36 17.9997C36 8.0588 27.9409 0.000106812 18 0.000106812ZM18.0021 21.8572C15.8719 21.8572 14.145 20.1303 14.145 18.0001V9.00007C14.145 6.86983 15.8719 5.14292 18.0021 5.14292C20.1324 5.14292 21.8593 6.86982 21.8593 9.00007V18.0001C21.8593 20.1303 20.1324 21.8572 18.0021 21.8572ZM21.8593 28.1869C21.8593 30.3171 20.1324 32.044 18.0021 32.044C15.8719 32.044 14.145 30.3171 14.145 28.1869C14.145 26.0566 15.8719 24.3297 18.0021 24.3297C20.1324 24.3297 21.8593 26.0566 21.8593 28.1869Z" fill="url(#paint1_linear_590_161874)"/>
<defs>
<linearGradient id="paint0_linear_590_161874" x1="11.4675" y1="28.5953" x2="71.2715" y2="72.4339" gradientUnits="userSpaceOnUse">
<stop stop-color="#F57D37"/>
<stop offset="1" stop-color="#D83B01"/>
</linearGradient>
<linearGradient id="paint1_linear_590_161874" x1="18" y1="0.000106812" x2="18" y2="35.9993" gradientUnits="userSpaceOnUse">
<stop stop-color="#F57D37"/>
<stop offset="1" stop-color="#E25113"/>
</linearGradient>
</defs>
</svg>
