<svg width="72" height="72" viewBox="0 0 72 72" fill="none" xmlns="http://www.w3.org/2000/svg">
<circle cx="36" cy="36" r="36" fill="url(#paint0_linear_2673_132058)"/>
<path d="M30.0416 28.0205C30.0416 26.9046 30.9462 26 32.062 26C33.1779 26 34.0825 26.9046 34.0825 28.0205V38.5234C34.0825 39.9814 33.7581 41.2094 33.1094 42.2075C32.4697 43.2055 31.5823 43.9562 30.447 44.4596C29.3208 44.963 28.0234 45.2147 26.5548 45.2147C25.0862 45.2147 23.7797 44.963 22.6355 44.4596C21.5002 43.9562 20.6083 43.2055 19.9595 42.2075C19.3198 41.2094 19 39.9814 19 38.5234V28.0272C19 26.9076 19.9076 26 21.0272 26C22.1468 26 23.0544 26.9076 23.0544 28.0272V38.5234C23.0544 39.3739 23.1941 40.0682 23.4734 40.6063C23.7527 41.1443 24.1536 41.5392 24.6762 41.7909C25.2078 42.0426 25.834 42.1684 26.5548 42.1684C27.2936 42.1684 27.9198 42.0426 28.4333 41.7909C28.9559 41.5392 29.3523 41.1443 29.6226 40.6063C29.9019 40.0682 30.0416 39.3739 30.0416 38.5234V28.0205Z" fill="#FFF3D7"/>
<path d="M44.6878 40.4408L48.6968 27.471C48.9671 26.5964 49.7757 26 50.6911 26C52.1381 26 53.1462 27.4364 52.6543 28.7971L47.5963 42.7886C47.1328 44.0707 45.876 44.8906 44.5159 44.7981L44.6878 40.4408ZM38.7119 26C39.6234 26 40.4284 26.5943 40.6969 27.4653L44.6878 40.4408L44.5159 44.7981C43.3672 44.8903 42.2992 44.2014 41.9095 43.1169L36.7572 28.7795C36.2708 27.4262 37.2738 26 38.7119 26Z" fill="#FFF3D7"/>
<defs>
<linearGradient id="paint0_linear_2673_132058" x1="52.2" y1="51.6" x2="-6.50433" y2="-20.0489" gradientUnits="userSpaceOnUse">
<stop stop-color="#EF6D0F"/>
<stop offset="0.56298" stop-color="#EEB82E"/>
<stop offset="1" stop-color="#FEB649" stop-opacity="0.78"/>
</linearGradient>
</defs>
</svg>
