<svg width="72" height="72" viewBox="0 0 72 72" fill="none" xmlns="http://www.w3.org/2000/svg"><path fill="#fff" d="M17.539 17.535h36.928v36.928H17.539z"/><path d="M6.457 23.69c0-6.798 5.511-12.31 12.31-12.31h34.466c6.798 0 12.309 5.512 12.309 12.31v24.62c0 6.798-5.511 12.31-12.31 12.31H18.767c-6.798 0-12.309-5.512-12.309-12.31zm22.157 1.579V46.73a1.576 1.576 0 0 0 2.397 1.345l16.047-9.807c1.697-1.037 1.697-3.5 0-4.537l-16.047-9.807a1.576 1.576 0 0 0-2.397 1.345" fill="url(#a)"/><defs><linearGradient id="a" x1="35.999" y1="11.381" x2="35.999" y2="60.132" gradientUnits="userSpaceOnUse"><stop stop-color="#6DA7FF"/><stop offset="1" stop-color="#6052F5"/></linearGradient></defs></svg>